HIERARCHY
ROOT SpineBase
{
  OFFSET 0.000000 0.000000 0.000000
  CHANNELS 6 Xposition Yposition Zposition Zrotation Xrotation Yrotation
  JOINT SpineMid
  {
    OFFSET -0.000000 23.322267 0.000000
    CHANNELS 3 Zrotation Xrotation Yrotation
    JOINT SpineShoulder
    {
      OFFSET -0.018078 17.444156 -0.494538
      CHANNELS 3 Zrotation Xrotation Yrotation
      JOINT Neck
      {
        OFFSET 0.016613 5.781186 -0.324594
        CHANNELS 3 Zrotation Xrotation Yrotation
        JOINT Head
        {
          OFFSET 2.885337 11.293229 1.027265
          CHANNELS 3 Zrotation Xrotation Yrotation
          End Site
          {
            OFFSET 0 0 0
          }
        }
      }
      JOINT ShoulderLeft
      {
        OFFSET -4.721350 -3.713287 -8.150703
        CHANNELS 3 Zrotation Xrotation Yrotation
        JOINT ElbowLeft
        {
          OFFSET 5.116699 -17.982742 -8.351575
          CHANNELS 3 Zrotation Xrotation Yrotation
          JOINT WristLeft
          {
            OFFSET 6.018549 -19.143018 0.097412
            CHANNELS 3 Zrotation Xrotation Yrotation
            JOINT HandLeft
            {
              OFFSET 1.478001 -5.942276 1.472479
              CHANNELS 3 Zrotation Xrotation Yrotation
              JOINT HandTipLeft
              {
                OFFSET 2.269356 -4.955398 0.173974
                CHANNELS 3 Zrotation Xrotation Yrotation
                End Site
                {
                  OFFSET 0 0 0
                }
              }
              JOINT ThumbLeft
              {
                OFFSET 1.656912 1.426038 -1.474265
                CHANNELS 3 Zrotation Xrotation Yrotation
                End Site
                {
                  OFFSET 0 0 0
                }
              }
            }
          }
        }
      }
      JOINT ShoulderRight
      {
        OFFSET 8.913713 -4.071461 18.435238
        CHANNELS 3 Zrotation Xrotation Yrotation
        JOINT ElbowRight
        {
          OFFSET -16.418448 -6.317990 -10.624121
          CHANNELS 3 Zrotation Xrotation Yrotation
          JOINT WristRight
          {
            OFFSET 7.644766 -16.754315 6.937284
            CHANNELS 3 Zrotation Xrotation Yrotation
            JOINT HandRight
            {
              OFFSET 1.210454 -4.435923 0.337752
              CHANNELS 3 Zrotation Xrotation Yrotation
              JOINT HandTipRight
              {
                OFFSET 3.319524 -4.152910 3.921203
                CHANNELS 3 Zrotation Xrotation Yrotation
                End Site
                {
                  OFFSET 0 0 0
                }
              }
              JOINT ThumbRight
              {
                OFFSET 2.298597 3.235123 -0.628149
                CHANNELS 3 Zrotation Xrotation Yrotation
                End Site
                {
                  OFFSET 0 0 0
                }
              }
            }
          }
        }
      }
    }
  }
  JOINT HipLeft
  {
    OFFSET -1.389711 0.183214 -7.589572
    CHANNELS 3 Zrotation Xrotation Yrotation
    JOINT KneeLeft
    {
      OFFSET -0.119295 -24.759004 1.811141
      CHANNELS 3 Zrotation Xrotation Yrotation
      JOINT AnkleLeft
      {
        OFFSET -4.105796 -69.867569 9.516840
        CHANNELS 3 Zrotation Xrotation Yrotation
        JOINT FootLeft
        {
          OFFSET 4.050422 -4.947581 0.735694
          CHANNELS 3 Zrotation Xrotation Yrotation
          End Site
          {
            OFFSET 0 0 0
          }
        }
      }
    }
  }
  JOINT HipRight
  {
    OFFSET 1.363829 0.098747 3.100491
    CHANNELS 3 Zrotation Xrotation Yrotation
    JOINT KneeRight
    {
      OFFSET 9.377630 -22.431994 -9.133412
      CHANNELS 3 Zrotation Xrotation Yrotation
      JOINT AnkleRight
      {
        OFFSET -12.969505 -29.170190 12.587878
        CHANNELS 3 Zrotation Xrotation Yrotation
        JOINT FootRight
        {
          OFFSET -0.328174 -9.624494 -2.436464
          CHANNELS 3 Zrotation Xrotation Yrotation
          End Site
          {
            OFFSET 0 0 0
          }
        }
      }
    }
  }
}
MOTION
Frames: 10
Frame Time: 0.033333
-0.068811 99.105578 336.799953 -6.293023 -2.728975 -46.371460 -0.907123 0.401135 46.094016 -0.283094 -0.286264 -0.204934 6.524961 7.633875 -1.084162 0.000000 0.000000 0.000000 14.406770 8.720897 -1.982506 -10.780577 -5.575730 1.099001 5.327320 -4.092894 -0.470819 -14.057367 1.073609 -0.554407 0.000000 0.000000 0.000000 0.000000 0.000000 0.000000 5.512261 2.251589 2.229367 2.656037 -2.765977 -2.476348 -1.353883 0.923831 0.181930 1.660154 0.389926 0.998878 0.000000 0.000000 0.000000 0.000000 0.000000 0.000000 -1.882924 6.897668 46.376708 0.084662 -1.098506 -0.292584 4.826622 4.443228 6.267155 0.000000 0.000000 0.000000 7.324768 -0.302006 42.850312 -1.111120 9.889393 1.618189 5.828822 5.806059 0.257610 0.000000 0.000000 0.000000
0.147190 98.229845 338.089122 -8.057557 -4.073881 -25.648876 -0.944351 0.927699 25.228896 -0.590427 -0.211171 -0.259673 6.384307 11.632869 -1.322423 0.000000 0.000000 0.000000 19.838757 11.664138 -3.487248 -13.639917 -7.786915 1.440837 4.041293 -1.372595 -0.148513 -11.705533 -2.299258 -1.958088 0.000000 0.000000 0.000000 0.000000 0.000000 0.000000 10.148307 2.853695 -0.947385 -2.061719 1.883790 1.534003 -0.743922 0.460058 0.079219 2.529904 -2.224386 0.336327 0.000000 0.000000 0.000000 0.000000 0.000000 0.000000 0.672937 10.694786 25.539033 0.449700 -1.810533 -0.314285 4.355566 3.879442 6.850208 0.000000 0.000000 0.000000 8.328534 -3.256257 21.071795 -0.873697 13.306500 2.156944 4.029523 3.899582 1.218298 0.000000 0.000000 0.000000
0.093875 97.141121 339.492769 -9.746966 -5.288627 -0.727773 -0.601583 1.361701 0.130239 -0.809417 -0.152396 -0.303069 3.902763 14.842364 -0.667519 0.000000 0.000000 0.000000 29.575329 15.999857 -7.563624 -18.274728 -10.382739 3.183621 0.957210 -2.048794 -0.651234 -7.513856 0.177313 -0.062739 0.000000 0.000000 0.000000 0.000000 0.000000 0.000000 17.092856 2.093281 -5.672259 -12.114725 9.276859 7.980115 -0.962058 3.500502 1.149753 5.796758 -11.182420 -1.380262 0.000000 0.000000 0.000000 0.000000 0.000000 0.000000 6.780250 12.662669 0.034596 0.820725 -2.551872 -0.314015 3.546179 2.834452 7.095774 0.000000 0.000000 0.000000 5.500555 -8.602409 -4.741160 1.239377 17.732521 2.265256 1.790759 3.181999 2.046193 0.000000 0.000000 0.000000
-0.290980 95.952655 340.810005 -11.283096 -6.207823 18.381812 -0.228975 1.530380 -19.163361 -0.934970 -0.068565 -0.333419 -0.539879 17.896095 0.712415 0.000000 0.000000 0.000000 33.436159 16.733632 -9.097247 -21.425167 -11.747753 3.101977 0.627012 0.596116 -0.363075 -7.202899 -2.536692 -0.907555 0.000000 0.000000 0.000000 0.000000 0.000000 0.000000 24.442996 0.460181 -11.894635 -26.883240 16.507855 17.860225 0.510587 1.551645 0.999351 7.817639 -14.423470 -0.913953 0.000000 0.000000 0.000000 0.000000 0.000000 0.000000 13.132229 11.806112 -19.545896 1.066640 -3.190865 -0.300615 3.091991 0.919744 6.574808 0.000000 0.000000 0.000000 -1.529892 -11.666502 -24.810262 6.066046 22.638428 1.240728 0.453218 2.735305 2.370189 0.000000 0.000000 0.000000
-0.813760 94.805718 341.840463 -12.816356 -6.751268 29.426203 0.004126 1.455434 -30.390602 -0.923108 0.001298 -0.360267 -6.561049 21.211504 2.773478 0.000000 0.000000 0.000000 31.581639 14.482741 -7.775303 -21.182875 -11.602044 2.041865 -0.971671 5.745332 0.344993 -8.976585 -8.910969 -3.867334 0.000000 0.000000 0.000000 0.000000 0.000000 0.000000 31.247103 -1.878304 -18.575503 -44.823288 20.682232 29.712968 3.181170 -3.975103 -0.029153 6.970207 -10.177831 1.421525 0.000000 0.000000 0.000000 0.000000 0.000000 0.000000 17.696750 9.921276 -30.619747 1.302409 -3.642215 -0.260663 3.110171 -0.467439 6.356056 0.000000 0.000000 0.000000 -7.415201 -12.264576 -36.954996 10.404771 26.803989 0.029632 -1.707296 2.368833 2.866703 0.000000 0.000000 0.000000
-1.398452 93.805637 342.569679 -14.014773 -6.907960 34.913693 0.044467 1.199443 -36.023772 -0.816852 0.014789 -0.384380 -12.774467 23.283336 5.138314 0.000000 0.000000 0.000000 22.609866 7.584553 -3.647685 -17.615836 -8.128367 -0.170868 -1.809962 10.622000 1.354006 -10.382146 -15.467762 -7.983868 0.000000 0.000000 0.000000 0.000000 0.000000 0.000000 36.436655 -4.316922 -24.649847 -61.827287 20.873229 40.229191 5.933510 -14.445697 -2.911868 3.580204 1.591872 5.471391 0.000000 0.000000 0.000000 0.000000 0.000000 0.000000 20.393358 8.308433 -35.906346 1.500771 -3.936220 -0.209981 3.815245 -1.429106 6.342210 0.000000 0.000000 0.000000 -9.795971 -10.917034 -41.894314 14.056934 27.121516 -1.523190 4.357095 6.529301 0.798119 0.000000 0.000000 0.000000
-1.885848 93.048965 342.801599 -14.862671 -6.580495 35.719593 -0.069543 0.834480 -36.908198 -0.569518 0.047792 -0.399119 -16.545407 24.552119 6.584901 0.000000 0.000000 0.000000 8.444117 -5.038259 0.417877 -10.827395 -0.208586 -3.154063 -2.859826 17.154798 3.763598 -13.600848 -25.279893 -16.846009 0.000000 0.000000 0.000000 0.000000 0.000000 0.000000 39.662392 -6.442037 -29.215252 -74.350702 18.878461 47.118594 8.328214 -28.359496 -7.298359 -4.654391 19.832933 14.095685 0.000000 0.000000 0.000000 0.000000 0.000000 0.000000 21.264702 7.385557 -36.495659 1.694846 -3.967853 -0.147944 4.927247 -1.681644 6.539631 0.000000 0.000000 0.000000 -11.755391 -11.794761 -43.440763 15.689678 29.005577 -2.061702 6.305587 7.396146 0.298549 0.000000 0.000000 0.000000
-2.264990 92.684272 343.143536 -15.595715 -6.505390 32.978289 -0.096296 0.675646 -34.236179 -0.360238 0.074892 -0.411902 -18.205654 25.574242 7.353177 0.000000 0.000000 0.000000 -8.252166 -19.630360 1.640479 -1.528447 10.226880 -7.330722 -16.612572 18.359199 5.622294 1.621485 -29.164923 -17.000771 0.000000 0.000000 0.000000 0.000000 0.000000 0.000000 41.224962 -7.317598 -32.121972 -81.088154 16.892848 50.468861 8.186616 -44.936366 -14.450603 -19.068886 38.386291 30.560440 0.000000 0.000000 0.000000 0.000000 0.000000 0.000000 21.672741 7.882993 -33.818328 1.818656 -3.940368 -0.100138 4.147478 -2.187500 6.108413 0.000000 0.000000 0.000000 -10.928795 -16.160627 -44.196643 11.284066 33.725723 0.393070 6.824339 7.262474 1.280817 0.000000 0.000000 0.000000
-2.588976 92.553101 343.246487 -16.016855 -6.147569 34.123830 -0.022823 0.499420 -35.387190 -0.095341 0.017996 -0.428114 -21.061915 26.075336 8.318151 0.000000 0.000000 0.000000 -26.393979 -32.084464 -0.615128 7.243007 18.309815 -13.208217 -21.466390 19.779985 8.542789 10.137099 -29.977066 -17.269002 0.000000 0.000000 0.000000 0.000000 0.000000 0.000000 40.833138 -6.906253 -32.944334 -81.704638 16.222887 51.004064 2.435849 -65.424306 -27.931008 -49.126909 52.309129 64.079582 0.000000 0.000000 0.000000 0.000000 0.000000 0.000000 22.258144 7.099905 -34.740231 1.918038 -4.035649 -0.061131 2.851457 -2.222105 6.022341 0.000000 0.000000 0.000000 -12.022124 -18.567602 -47.786011 8.302488 36.675853 2.266954 7.533628 7.922927 1.832599 0.000000 0.000000 0.000000
-2.859755 92.205110 343.516790 -16.132837 -5.950133 31.628888 0.308636 0.278163 -32.884174 0.090165 0.133473 -0.403846 -21.803120 25.892150 8.265388 0.000000 0.000000 0.000000 -38.749221 -38.660657 -4.338006 10.344246 22.677307 -15.962068 -23.457442 23.773063 14.061330 11.468375 -33.807223 -21.147177 0.000000 0.000000 0.000000 0.000000 0.000000 0.000000 37.983784 -4.736986 -31.301723 -74.832401 17.293781 48.466244 -27.012846 -81.410735 -62.918405 -80.912437 54.351852 99.818366 0.000000 0.000000 0.000000 0.000000 0.000000 0.000000 22.209489 7.845580 -32.329701 1.902797 -4.122996 -0.044260 1.948905 -2.247769 5.897274 0.000000 0.000000 0.000000 -9.687835 -20.866665 -46.529934 4.584334 37.618011 4.266918 6.857714 7.096012 2.501131 0.000000 0.000000 0.000000
